<svg width="258" height="100" viewBox="0 0 258 100" fill="none" xmlns="http://www.w3.org/2000/svg">
<path d="M152.256 47.1046L150.233 46.7451C142.913 45.5523 141.665 43.1046 141.665 38.8105C141.665 37.1176 142.154 35.549 143.552 34.4346C144.956 33.3235 148.246 32.8268 151.161 32.8268C154.468 32.8268 156.517 33.2549 159.005 34.9248V34.902C162.029 37.1732 163.98 40.6242 163.98 44.4804V32.1209H151.165C147.842 32.1209 146.203 32.2745 143.858 33.1993C140.138 34.6667 137.672 37.6111 137.672 41.3203C137.672 46.5686 139.278 51.5817 150.409 53.4902L152.253 53.7876C158.504 54.9804 161.774 57.0065 161.774 62.6765C161.774 64.5882 161.097 66.2386 159.895 67.4804V67.4739C158.585 68.7712 155.116 69.3366 151.985 69.3366C148.679 69.3366 146.633 68.915 144.141 67.2484C140.359 64.6242 137.906 60.3595 137.906 55.5752V70.0425H152.015C153.575 70.0425 154.94 69.9837 156.1 69.7974C156.996 69.6634 157.83 69.4641 158.608 69.219C158.657 69.2026 158.703 69.1863 158.748 69.1765C158.774 69.1667 158.8 69.1569 158.826 69.1471C159.123 69.0523 159.289 68.9837 159.289 68.9837C163.869 67.2484 166.182 63.5131 166.182 59.2778C166.182 52.4771 161.657 48.4183 152.253 47.1078" fill="black"/>
<path d="M243.914 66.7582V35.4052C243.914 33.4935 245.462 32.1209 247.25 32.1209H234.558C236.347 32.1209 237.897 33.4935 237.897 35.4052V66.7582C237.897 68.6699 236.347 70.0425 234.558 70.0425H247.25C245.465 70.0425 243.914 68.6699 243.914 66.7582Z" fill="black"/>
<path d="M104.891 32.1078C106.676 32.1078 108.226 33.4837 108.226 35.3954V54.8007C108.226 61.3366 106.966 65.2843 104.76 67.5196C103.435 68.8007 100.724 69.3235 97.6133 69.3235C94.5023 69.3235 91.7888 68.8007 90.4629 67.5196C88.2608 65.2843 87.0001 61.3366 87.0001 54.8007V35.3954C86.9969 33.4837 88.5475 32.1078 90.3359 32.1078H77.6411C79.4295 32.1078 80.9769 33.4837 80.9769 35.3954V52.4739C80.9801 62.536 84.5635 67.2386 90.2903 69.0621C90.2903 69.0621 90.3782 69.0915 90.5216 69.134C92.1927 69.6373 94.043 69.9052 96.0334 69.9935C96.5318 70.0196 97.6101 70.0294 97.6101 70.0294C97.6133 70.0294 98.6981 70.0196 99.19 69.9935C101.184 69.9052 103.031 69.6373 104.702 69.134C104.848 69.0915 104.933 69.0621 104.933 69.0621C110.66 67.2386 114.243 62.536 114.243 52.4739V35.3954C114.243 33.4837 115.794 32.1078 117.582 32.1078H104.887H104.891Z" fill="black"/>
<path d="M200.602 47.1046L198.579 46.7451C191.262 45.5523 190.011 43.1046 190.011 38.8105C190.011 37.1176 190.5 35.549 191.901 34.4346C193.301 33.3235 196.595 32.8268 199.507 32.8268C202.813 32.8268 204.862 33.2549 207.355 34.9248L207.348 34.902C210.371 37.1732 212.326 40.6242 212.326 44.4804V32.1209H199.514C196.188 32.1209 194.549 32.2745 192.207 33.1993C188.483 34.6667 186.024 37.6111 186.024 41.3203C186.024 46.5686 187.63 51.5817 198.758 53.4902L200.602 53.7876C206.853 54.9804 210.123 57.0065 210.123 62.6765C210.123 64.5882 209.446 66.2386 208.247 67.4804V67.4739C206.938 68.7712 203.468 69.3366 200.338 69.3366C197.031 69.3366 194.982 68.915 192.493 67.2484C188.708 64.6242 186.258 60.3595 186.258 55.5752V70.0425H200.367C201.927 70.0425 203.292 69.9837 204.452 69.7974C205.345 69.6634 206.182 69.4641 206.96 69.219C207.006 69.2026 207.055 69.1863 207.104 69.1765C207.13 69.1667 207.153 69.1569 207.182 69.1471C207.478 69.0523 207.644 68.9837 207.644 68.9837C212.221 67.2484 214.534 63.5131 214.534 59.2778C214.534 52.4771 210.016 48.4183 200.608 47.1078" fill="black"/>
<path d="M54.8966 66.7549V35.4216C54.8966 33.5098 56.4472 32.1373 58.2324 32.1373H48.8864V66.7516C48.8864 68.6569 47.3358 70.0359 45.5507 70.0359H58.2324C56.4472 70.0359 54.8966 68.6601 54.8966 66.7516" fill="black"/>
<path d="M48.8832 34.8105L38.3189 59.1209C37.1787 61.415 34.6508 60.2974 33.3706 57.8725L20.337 32.2092H10.75C13.4896 32.2092 14.7992 33.8203 16.0501 36.2092L34.5498 69.8464L48.9223 37.0588" fill="black"/>
<path d="M15.2748 34.7549L15.2585 66.781C15.2585 68.6895 13.7111 70.0621 11.9227 70.0621H25.028C17.1674 70.0621 17.7538 65.2549 16.998 53.8758C16.5159 46.6242 16.2716 38.6373 16.1641 36.415" fill="black"/>
</svg>
